<svg xmlns="http://www.w3.org/2000/svg" viewBox="0 0 38.93 70.01"><defs><style>.cls-1{fill:#fff;}</style></defs><title>jhpiego-mamagram-white</title><g id="Layer_2" data-name="Layer 2"><g id="Layer_1-2" data-name="Layer 1"><g id="MONO_Logo_Tag_White" data-name="MONO Logo Tag White"><path class="cls-1" d="M28.1,27.59a6.55,6.55,0,0,0,4.49,1.61,6.55,6.55,0,0,0,4.49-1.61,5.55,5.55,0,0,0,1.85-4.4,5.66,5.66,0,0,0-1.85-4.43,6.93,6.93,0,0,0-9,0,5.66,5.66,0,0,0-1.85,4.43,5.55,5.55,0,0,0,1.85,4.4"/><path class="cls-1" d="M29,42.29a8.85,8.85,0,0,0-1.65,5.28A15.87,15.87,0,0,0,27.66,51a.49.49,0,0,0,.62.35c6.53-2.84,10.39-7.18,10.39-12.64,0-4.8-2.83-7.46-6.3-7.46a6,6,0,0,0-6.28,5.86A5.71,5.71,0,0,0,29,42.29"/><path class="cls-1" d="M10.54,12a7.55,7.55,0,0,0,5.14,1.85A7.53,7.53,0,0,0,20.82,12a6.36,6.36,0,0,0,2.11-5,6.46,6.46,0,0,0-2.11-5.06A7.42,7.42,0,0,0,15.68,0a7.44,7.44,0,0,0-5.14,1.89A6.46,6.46,0,0,0,8.43,7a6.36,6.36,0,0,0,2.11,5"/><path class="cls-1" d="M8.51,70a15.7,15.7,0,0,0,3.68-.52,15.9,15.9,0,0,0,4.23-1.74,14.35,14.35,0,0,0,3.79-3.22,12.57,12.57,0,0,0,2.5-5,22.37,22.37,0,0,0,.67-4.33c.1-1.6.14-2.94.14-4,0,0,0-21.55,0-25.33v-.55c0-.15,0-1.27,0-1.42a6.33,6.33,0,0,0-4.41-6c-5.92-1.84-9.69-.11-9.69-.11a1,1,0,0,0-.56.92V52.26a14,14,0,0,1-.3,3A6,6,0,0,1,7.4,57.66a6.13,6.13,0,0,1-2.29,1.7,14.11,14.11,0,0,1-4.27.92A.77.77,0,0,0,.13,61a46.61,46.61,0,0,0,0,6.19C.27,70.12,8.51,70,8.51,70"/></g></g></g></svg>